<svg width="110" height="24" viewBox="0 0 110 24" fill="none" xmlns="http://www.w3.org/2000/svg">
<path d="M15.9589 11.7016V16.9892C15.9589 17.6946 15.6787 18.371 15.1799 18.8698C14.6811 19.3686 14.0047 19.6488 13.2993 19.6488H5.32043C4.61505 19.6488 3.93857 19.3686 3.43979 18.8698C2.94102 18.371 2.66081 17.6946 2.66081 16.9892V11.7016L7.31514 5.68584H11.3046L15.9589 11.7016Z" fill="#9282FA" fill-opacity="0.4" style="fill:#9282FA;fill:color(display-p3 0.5725 0.5098 0.9804);fill-opacity:0.4;"/>
<path d="M18.5944 12.0855L17.2297 4.77159C17.1964 4.59331 17.1269 4.42374 17.0256 4.2733C16.9243 4.12286 16.7933 3.99472 16.6406 3.89679C16.4879 3.79886 16.3169 3.73319 16.1378 3.70382C15.9589 3.67446 15.7758 3.68201 15.5998 3.72603L15.5741 3.73351L11.209 5.02093H7.41072L3.04562 3.73767L3.01985 3.73019C2.8439 3.68617 2.66081 3.67861 2.48183 3.70798C2.30285 3.73735 2.13177 3.80302 1.97911 3.90095C1.82645 3.99888 1.69544 4.12701 1.59413 4.27745C1.49281 4.42789 1.42335 4.59746 1.39 4.77575L0.0252929 12.0855C-0.0330653 12.3783 0.0102562 12.6822 0.14808 12.947C0.285912 13.2117 0.510008 13.4216 0.783282 13.5417C0.958289 13.622 1.14844 13.6639 1.34097 13.6647C1.57142 13.6646 1.79761 13.6026 1.9959 13.4852V16.9892C1.9959 17.871 2.34617 18.7165 2.96963 19.34C3.5931 19.9635 4.4387 20.3137 5.32042 20.3137H13.2993C14.181 20.3137 15.0266 19.9635 15.65 19.34C16.2736 18.7165 16.6238 17.871 16.6238 16.9892V13.486C16.8219 13.6032 17.0478 13.6652 17.2779 13.6655C17.4706 13.6649 17.661 13.6233 17.8364 13.5433C18.11 13.4232 18.3343 13.2131 18.4722 12.9479C18.61 12.6828 18.6532 12.3785 18.5944 12.0855ZM1.33099 12.3349L2.69654 5.02093L6.19311 6.04904L1.33099 12.3349ZM13.2993 18.9839H9.97475V17.9292L11.1101 16.7947C11.2348 16.67 11.3049 16.5008 11.3049 16.3243C11.3049 16.1478 11.2348 15.9786 11.1101 15.8539C10.9853 15.7291 10.8161 15.6591 10.6397 15.6591C10.4632 15.6591 10.294 15.7291 10.1692 15.8539L9.30985 16.7141L8.45046 15.8539C8.32571 15.7291 8.15649 15.6591 7.98004 15.6591C7.8036 15.6591 7.63438 15.7291 7.50962 15.8539C7.38487 15.9786 7.31472 16.1479 7.31472 16.3243C7.31472 16.5007 7.38487 16.67 7.50962 16.7947L8.64495 17.9292V18.9839H5.32042C4.79139 18.9839 4.28402 18.7737 3.90995 18.3997C3.53587 18.0256 3.3257 17.5182 3.3257 16.9892V11.9285L7.64178 6.35074H10.9779L15.294 11.9285V16.9892C15.294 17.5182 15.0838 18.0256 14.7097 18.3997C14.3357 18.7737 13.8283 18.9839 13.2993 18.9839ZM17.2887 12.3349L12.4266 6.04904L15.9232 5.02093L17.2887 12.3349ZM7.31514 13.3322C7.31514 13.5295 7.25663 13.7223 7.14709 13.8863C7.03746 14.0503 6.88169 14.1782 6.69945 14.2537C6.51721 14.3292 6.31667 14.3489 6.1232 14.3104C5.92974 14.2719 5.75203 14.1769 5.61254 14.0374C5.47306 13.898 5.37807 13.7203 5.33959 13.5268C5.3011 13.3333 5.32085 13.1328 5.39634 12.9506C5.47183 12.7683 5.59966 12.6126 5.76368 12.5029C5.92769 12.3934 6.12052 12.3349 6.31777 12.3349C6.58229 12.3349 6.83598 12.4399 7.023 12.627C7.21008 12.814 7.31514 13.0677 7.31514 13.3322ZM13.2993 13.3322C13.2993 13.5295 13.2408 13.7223 13.1312 13.8863C13.0216 14.0503 12.8658 14.1782 12.6836 14.2537C12.5013 14.3292 12.3008 14.3489 12.1074 14.3104C11.9139 14.2719 11.7362 14.1769 11.5967 14.0374C11.4572 13.898 11.3622 13.7203 11.3237 13.5268C11.2852 13.3333 11.305 13.1328 11.3805 12.9506C11.456 12.7683 11.5838 12.6126 11.7478 12.5029C11.9118 12.3934 12.1047 12.3349 12.3019 12.3349C12.5665 12.3349 12.8201 12.4399 13.0071 12.627C13.1942 12.814 13.2993 13.0677 13.2993 13.3322Z" fill="#9282FA" style="fill:#9282FA;fill:color(display-p3 0.5725 0.5098 0.9804);fill-opacity:1;"/>
<path d="M104.165 17.1934V8.55336H101.085V6.79336H109.485V8.55336H106.405V17.1934H104.165Z" fill="#9282FA" style="fill:#9282FA;fill:color(display-p3 0.5725 0.5098 0.9804);fill-opacity:1;"/>
<path d="M92.9012 17.1934V6.79336H99.9946V8.55336H95.1146V10.8467H98.8746V12.4734H95.1146V15.4334H100.075V17.1934H92.9012Z" fill="#9282FA" style="fill:#9282FA;fill:color(display-p3 0.5725 0.5098 0.9804);fill-opacity:1;"/>
<path d="M83.3075 17.1934V6.79336H87.6542C88.9875 6.79336 89.9608 7.0778 90.5742 7.64669C91.1875 8.20669 91.4942 8.96224 91.4942 9.91336C91.4942 10.8645 91.1875 11.6245 90.5742 12.1934C89.9697 12.7622 88.9964 13.0467 87.6542 13.0467H85.5208V17.1934H83.3075ZM85.5208 11.3667H87.3208C87.9253 11.3667 88.3964 11.2645 88.7342 11.06C89.0808 10.8467 89.2542 10.4689 89.2542 9.92669C89.2542 9.39336 89.0808 9.02002 88.7342 8.80669C88.3964 8.58447 87.9253 8.47336 87.3208 8.47336H85.5208V11.3667Z" fill="#9282FA" style="fill:#9282FA;fill:color(display-p3 0.5725 0.5098 0.9804);fill-opacity:1;"/>
<path d="M73.7525 17.38C72.6503 17.38 71.7303 17.1622 70.9925 16.7267C70.2636 16.2822 69.7169 15.6556 69.3525 14.8467C68.9969 14.0378 68.8192 13.0867 68.8192 11.9934C68.8192 10.8911 68.9969 9.94002 69.3525 9.14002C69.7169 8.33113 70.2636 7.70891 70.9925 7.27336C71.7303 6.82891 72.6503 6.60669 73.7525 6.60669C74.8636 6.60669 75.7836 6.82891 76.5125 7.27336C77.2414 7.70891 77.7836 8.33113 78.1392 9.14002C78.5036 9.94002 78.6858 10.8911 78.6858 11.9934C78.6858 13.0867 78.5036 14.0378 78.1392 14.8467C77.7836 15.6556 77.2414 16.2822 76.5125 16.7267C75.7836 17.1622 74.8636 17.38 73.7525 17.38ZM73.7525 15.7C74.6503 15.7 75.3081 15.38 75.7258 14.74C76.1525 14.0911 76.3658 13.1756 76.3658 11.9934C76.3658 10.8022 76.1525 9.88669 75.7258 9.24669C75.3081 8.60669 74.6503 8.28669 73.7525 8.28669C72.8547 8.28669 72.1925 8.60669 71.7658 9.24669C71.3481 9.88669 71.1392 10.8022 71.1392 11.9934C71.1392 13.1756 71.3481 14.0911 71.7658 14.74C72.1925 15.38 72.8547 15.7 73.7525 15.7Z" fill="#9282FA" style="fill:#9282FA;fill:color(display-p3 0.5725 0.5098 0.9804);fill-opacity:1;"/>
<path d="M59.0262 17.1934V6.79336H62.7329C64.5818 6.79336 65.924 7.25113 66.7596 8.16669C67.5951 9.07336 68.0129 10.3489 68.0129 11.9934C68.0129 13.6378 67.5951 14.9178 66.7596 15.8334C65.924 16.74 64.5818 17.1934 62.7329 17.1934H59.0262ZM61.2662 15.46H62.5996C63.284 15.46 63.8529 15.3578 64.3062 15.1534C64.7685 14.94 65.1151 14.5845 65.3462 14.0867C65.5774 13.58 65.6929 12.8822 65.6929 11.9934C65.6929 11.1045 65.5774 10.4111 65.3462 9.91336C65.1151 9.40669 64.7685 9.05113 64.3062 8.84669C63.8529 8.63336 63.284 8.52669 62.5996 8.52669H61.2662V15.46Z" fill="#9282FA" style="fill:#9282FA;fill:color(display-p3 0.5725 0.5098 0.9804);fill-opacity:1;"/>
<path d="M47.5575 17.1934V6.79336H51.4242L54.6508 15.4334H54.9708V6.79336H56.9975V17.1934H53.1042L49.8908 8.55336H49.5842V17.1934H47.5575Z" fill="#9282FA" style="fill:#9282FA;fill:color(display-p3 0.5725 0.5098 0.9804);fill-opacity:1;"/>
<path d="M41.2056 17.3934C39.7034 17.3934 38.5834 17.0067 37.8456 16.2334C37.1167 15.4511 36.7523 14.3356 36.7523 12.8867V6.79336H39.019V12.82C39.019 13.6734 39.179 14.34 39.499 14.82C39.8278 15.3 40.4056 15.54 41.2323 15.54C42.0678 15.54 42.6456 15.3 42.9656 14.82C43.2856 14.34 43.4456 13.6734 43.4456 12.82V6.79336H45.659V12.8867C45.659 14.3356 45.2945 15.4511 44.5656 16.2334C43.8367 17.0067 42.7167 17.3934 41.2056 17.3934Z" fill="#9282FA" style="fill:#9282FA;fill:color(display-p3 0.5725 0.5098 0.9804);fill-opacity:1;"/>
<path d="M22.62 17.1934V6.79336H26.5667L28.5 15.4334H28.98L30.9133 6.79336H34.86V17.1934H32.78V8.63336H32.4333L30.54 17.1934H26.8333L24.94 8.63336H24.5933V17.1934H22.62Z" fill="#9282FA" style="fill:#9282FA;fill:color(display-p3 0.5725 0.5098 0.9804);fill-opacity:1;"/>
</svg>